<?xml version="1.0" standalone="no"?>
<!DOCTYPE svg PUBLIC "-//W3C//DTD SVG 20010904//EN"
 "http://www.w3.org/TR/2001/REC-SVG-20010904/DTD/svg10.dtd">
<svg version="1.0" xmlns="http://www.w3.org/2000/svg"
 width="394.000000pt" height="446.000000pt" viewBox="0 0 394.000000 446.000000"
 preserveAspectRatio="xMidYMid meet">
<metadata>
Created by potrace 1.16, written by Peter Selinger 2001-2019
</metadata>
<g transform="translate(0.000000,446.000000) scale(0.100000,-0.100000)"
fill="#3C6CB4" stroke="none">
<path d="M1834 4430 c-191 -95 -294 -345 -294 -712 0 -355 97 -742 308 -1225
22 -51 39 -93 37 -93 -2 0 -23 34 -47 75 -56 97 -72 98 -18 0 23 -41 39 -75
37 -75 -3 0 -27 30 -53 67 -81 113 -236 303 -335 409 -288 310 -569 508 -849
600 -77 25 -99 28 -230 28 -139 1 -147 0 -207 -28 -75 -34 -142 -102 -167
-168 -14 -35 -17 -68 -15 -135 4 -82 8 -97 48 -178 34 -69 63 -108 130 -178
280 -290 803 -485 1506 -561 l130 -14 -107 -1 c-65 -1 -108 -5 -108 -11 0 -6
44 -11 108 -12 59 0 91 -3 72 -5 -407 -41 -678 -95 -950 -188 -416 -143 -718
-374 -809 -618 -30 -83 -29 -204 3 -272 31 -65 86 -117 161 -152 57 -27 66
-28 205 -27 131 0 153 3 230 28 281 92 558 289 852 603 96 103 251 293 332
406 26 37 50 67 53 67 2 0 -14 -34 -37 -75 -54 -98 -38 -97 18 0 24 41 45 75
47 75 2 0 -15 -42 -37 -92 -211 -484 -308 -871 -308 -1226 0 -367 103 -617
294 -712 85 -43 187 -43 272 0 191 95 294 345 294 712 0 355 -97 742 -308
1225 -22 51 -39 93 -37 93 2 0 23 -34 47 -75 56 -97 72 -98 18 0 -23 41 -39
75 -37 75 3 0 27 -30 53 -67 81 -113 236 -303 332 -406 294 -314 571 -511 852
-603 77 -25 99 -28 230 -28 139 -1 148 0 205 27 75 35 130 87 161 152 32 68
33 189 3 272 -91 244 -393 475 -809 618 -272 93 -543 147 -950 188 -19 2 13 5
73 5 63 1 107 6 107 12 0 6 -43 10 -107 11 l-108 1 130 14 c703 76 1226 271
1506 561 67 70 96 109 130 178 40 81 44 96 48 178 2 67 -1 100 -15 135 -25 66
-92 134 -167 168 -60 28 -68 29 -207 28 -131 0 -153 -3 -230 -28 -280 -92
-561 -290 -849 -600 -99 -106 -254 -296 -335 -409 -26 -37 -50 -67 -53 -67 -2
0 14 34 37 75 54 98 38 97 -18 0 -24 -41 -45 -75 -47 -75 -2 0 15 42 37 93
211 483 308 870 308 1225 0 367 -103 617 -294 712 -50 25 -71 30 -136 30 -65
0 -86 -5 -136 -30z"/>
</g>
</svg>
