<svg xmlns="http://www.w3.org/2000/svg" viewBox="0 0 52.11 37.67"><defs><style>.cls-1{fill:#3661a3;}.cls-2{fill:none;stroke:#3661a3;stroke-miterlimit:10;stroke-width:3px;}</style></defs><g id="Layer_2" data-name="Layer 2"><g id="Layer_1-2" data-name="Layer 1"><path class="cls-1" d="M30.07,18.83a3.78,3.78,0,1,1-3.78-3.77A3.78,3.78,0,0,1,30.07,18.83Z"/><path class="cls-1" d="M17.68,18.83a3.78,3.78,0,1,1-3.78-3.77A3.78,3.78,0,0,1,17.68,18.83Z"/><path class="cls-1" d="M42,18.83a3.78,3.78,0,1,1-3.78-3.77A3.78,3.78,0,0,1,42,18.83Z"/><path class="cls-2" d="M50.61,18.83A17.33,17.33,0,0,1,33.28,36.17H18.83A17.33,17.33,0,0,1,1.5,18.83h0A17.33,17.33,0,0,1,18.83,1.5H33.28A17.33,17.33,0,0,1,50.61,18.83Z"/></g></g></svg>