<svg id="ec21wmuhkmx81" xmlns="http://www.w3.org/2000/svg" xmlns:xlink="http://www.w3.org/1999/xlink" viewBox="0 0 570.100000 84.010000" shape-rendering="geometricPrecision" text-rendering="geometricPrecision"><g id="ec21wmuhkmx82"><g id="ec21wmuhkmx83"><path id="ec21wmuhkmx84" d="M234.680000,36.430000C200.250000,96.060000,169,42,237.900000,42C169.040000,42,200.250000,-12,234.680000,47.580000C200.250000,-12.050000,262.680000,-12.050000,228.240000,47.580000C262.660000,-12,293.880000,42,225,42C293.860000,42,262.640000,96.060000,228.220000,36.430000C262.660000,96.060000,200.250000,96.060000,234.680000,36.430000Z" transform="matrix(1 0 0 1 53.60313110000004 0)" fill="rgb(54,97,163)" stroke="none" stroke-width="1"/><path id="ec21wmuhkmx85" d="M59.700000,74.790000C60.539765,75.996799,61.618791,77.017960,62.870000,77.790000C64.140000,78.600000,65.130000,79.220000,65.870000,79.640000C66.526025,79.907876,66.966928,80.532163,67,81.240000L67,81.480000Q67,82.860000,64.690000,82.860000L48.690000,82.860000Q46.380000,82.860000,46.380000,81.480000L46.380000,81.240000C46.380000,80.710000,46.780000,80.130000,47.590000,79.510000C48.239156,79.054219,48.804219,78.489156,49.260000,77.840000C49.560000,77.340000,49.380000,76.330000,48.690000,74.840000L31.350000,50.940000C30.392525,51.026083,29.431252,51.062798,28.470000,51.050000L14.640000,51.280000L14.640000,74.790000C14.604445,75.856992,14.996895,76.893925,15.730000,77.670000C16.407804,78.413709,17.161953,79.084064,17.980000,79.670000C18.750000,80.210000,19.130000,80.750000,19.130000,81.280000L19.130000,81.520000C19.130000,82.440000,18.370000,82.900000,16.830000,82.900000L2.300000,82.900000C0.770000,82.860000,0,82.400000,0,81.480000L0,81.240000C0,80.710000,0.690000,79.880000,2.070000,78.770000C3.359232,77.842656,4.131254,76.357997,4.150000,74.770000L4.150000,9.100000C4.131254,7.512003,3.359232,6.027344,2.070000,5.100000C0.690000,4,0,3.190000,0,2.650000L0,2.420000C0,1.500000,0.770000,1,2.300000,1L25.930000,1Q41.490000,1,51.050000,7.430000Q60.610000,13.860000,60.740000,26.430000C60.806017,31.608841,59.006401,36.638538,55.670000,40.600000Q50.580000,46.720000,41.260000,49.360000ZM27.430000,46.440000Q37.570000,46.440000,43.790000,41.490000Q50.010000,36.540000,50,27.890000Q50,17.060000,42.920000,11.410000Q35.840000,5.760000,25.350000,5.760000L17.630000,5.760000C15.630000,5.760000,14.630000,7.070000,14.630000,9.680000L14.630000,41C14.630000,44.620000,16.240000,46.420000,19.470000,46.420000Z" transform="matrix(1 0 0 1 202.80122680000002 0)" opacity="0" fill="rgb(60,108,180)" stroke="none" stroke-width="1"/><path id="ec21wmuhkmx86" d="M100,82.860000C98.390000,82.860000,97.580000,82.400000,97.580000,81.480000L97.580000,81.240000C97.580000,80.710000,98.290000,79.880000,99.710000,78.770000C101.043833,77.835013,101.838606,76.308898,101.840000,74.680000L101.840000,9.220000C101.890701,8.112220,101.535092,7.024057,100.840000,6.160000C100.217133,5.406223,99.501457,4.734228,98.710000,4.160000C97.980000,3.660000,97.610000,3.160000,97.610000,2.610000L97.610000,2.300000C97.610000,1.460000,98.300000,1.040000,99.690000,1.040000L148.550000,1.040000C150.090000,1.040000,151.040000,1.880000,151.430000,3.570000L154.200000,15C154.500000,16.540000,154.040000,17.310000,152.810000,17.310000L152.240000,17.310000C151.470000,17.310000,150.610000,16.710000,149.640000,15.520000C148.643169,14.267560,147.759689,12.928954,147,11.520000C146.173487,10.033095,145.120929,8.683661,143.880000,7.520000C142.832681,6.422313,141.396356,5.779558,139.880000,5.730000L115.480000,5.730000C113.320000,5.730000,112.250000,7.040000,112.250000,9.650000L112.250000,38.600000L133.250000,38.600000C134.198141,38.630043,135.116820,38.268359,135.790000,37.600000C136.466791,36.931014,136.994942,36.126861,137.340000,35.240000C137.654893,34.418584,138.039636,33.625681,138.490000,32.870000C138.761188,32.307006,139.307743,31.927454,139.930000,31.870000L140.400000,31.870000C141.400000,31.870000,141.890000,32.520000,141.890000,33.870000L141.890000,47.940000C141.890000,49.250000,141.390000,49.940000,140.400000,49.940000L139.930000,49.940000C139.308443,49.880631,138.762738,49.501669,138.490000,48.940000C138.055031,48.217533,137.670772,47.465723,137.340000,46.690000C136.972310,45.850537,136.446013,45.089953,135.790000,44.450000C135.118827,43.778574,134.198764,43.416345,133.250000,43.450000L112.250000,43.450000L112.130000,73.300000C112.093338,74.560159,112.480689,75.796158,113.230000,76.810000C113.981834,77.786810,115.169727,78.326420,116.400000,78.250000L143.480000,78.250000C144.983021,78.197347,146.399203,77.532608,147.400000,76.410000C148.598806,75.218094,149.592213,73.836110,150.340000,72.320000C151.035060,70.870341,151.883220,69.499205,152.870000,68.230000C153.870000,67,154.730000,66.380000,155.580000,66.380000L156.270000,66.380000C156.772325,66.358746,157.242495,66.626860,157.480000,67.070000C157.755678,67.564075,157.817107,68.149459,157.650000,68.690000L154.890000,80.330000C154.500000,82.100000,153.500000,82.980000,151.890000,82.980000Z" transform="matrix(1 0 0 1 103.78571411500010 0)" opacity="0" fill="rgb(60,108,180)" stroke="none" stroke-width="1"/><path id="ec21wmuhkmx87" d="M362.200000,74.790000C362.916457,76.354519,364.051630,77.690423,365.480000,78.650000C366.980000,79.650000,367.730000,80.550000,367.730000,81.240000L367.730000,81.480000Q367.730000,82.860000,365.540000,82.860000L349.290000,82.860000Q347.100000,82.860000,347.100000,81.480000L347.100000,81.240000C347.152347,80.682756,347.448985,80.177373,347.910000,79.860000C348.421570,79.414983,348.981791,79.029202,349.580000,78.710000C350.194568,78.359277,350.694643,77.838366,351.020000,77.210000C351.401747,76.448498,351.401747,75.551502,351.020000,74.790000L345.490000,61.190000L308.150000,61.190000L303.080000,74.790000C302.691402,75.545155,302.669302,76.436516,303.020000,77.210000C303.314144,77.840457,303.796198,78.364429,304.400000,78.710000C305.010095,79.040498,305.589111,79.425393,306.130000,79.860000C306.614293,80.162611,306.931689,80.671921,306.990000,81.240000L306.990000,81.480000C306.990000,82.400000,306.190000,82.860000,304.580000,82.860000L293.630000,82.860000C292.090000,82.860000,291.330000,82.400000,291.330000,81.480000L291.330000,81.240000C291.330000,80.630000,292.070000,79.800000,293.570000,78.770000C295.015960,77.797722,296.123777,76.399845,296.740000,74.770000L322.320000,9.450000Q323.130000,7.450000,320.940000,5.360000C319.480000,3.940000,318.750000,3.040000,318.750000,2.650000L318.750000,2.300000Q318.750000,1.040000,320.370000,1.040000L327.050000,1.040000C329.496991,0.972770,331.699058,2.516654,332.470000,4.840000ZM310.110000,56.230000L343.530000,56.230000L326.240000,13.480000Z" transform="matrix(1 0 0 1 -98.08313110000006 0)" opacity="0" fill="rgb(60,108,180)" stroke="none" stroke-width="1"/><path id="ec21wmuhkmx88" d="M430,84Q414.670000,84,402.920000,71.090000C395.269613,62.986001,391.054889,52.234154,391.160000,41.090000Q391.160000,23,401.940000,11.470000Q412.720000,-0.060000,429.390000,0C437.345663,-0.161681,445.121506,2.376218,451.450000,7.200000Q460.840000,14.400000,460.850000,21.320000C460.935721,22.677963,460.454086,24.010608,459.520000,25C458.501828,25.932169,457.147577,26.408866,455.770000,26.320000C454.102667,26.249193,452.557662,25.425191,451.570000,24.080000C450.174461,22.399701,448.920192,20.606932,447.820000,18.720000C446.529326,16.552359,445.127455,14.452890,443.620000,12.430000C441.827438,10.139227,439.540512,8.283023,436.930000,7C433.762568,5.434511,430.262095,4.662348,426.730000,4.750000Q416.360000,4.750000,408.930000,13.400000Q401.500000,22.050000,401.500000,35.400000Q401.500000,52.330000,410.890000,63.570000Q420.280000,74.810000,432.840000,74.810000C438.608381,74.978715,444.227298,72.960477,448.570000,69.160000C452.782636,65.474908,456.079635,60.859794,458.200000,55.680000C458.670232,54.555356,459.908847,53.961853,461.080000,54.300000C462.300000,54.600000,462.770000,55.570000,462.460000,57.180000C461.143559,64.504317,457.437035,71.185907,451.920000,76.180000Q443.440000,84,430,84Z" transform="matrix(1 0 0 1 -190.55213623000012 -1.14000000000001)" opacity="0" fill="rgb(60,108,180)" stroke="none" stroke-width="1"/><path id="ec21wmuhkmx89" d="M497.720000,82.860000C496.190000,82.860000,495.420000,82.400000,495.420000,81.480000L495.420000,81.240000C495.420000,80.710000,496.110000,79.880000,497.490000,78.770000C498.779232,77.842656,499.551254,76.357997,499.570000,74.770000L499.570000,9.100000C499.551254,7.512003,498.779232,6.027344,497.490000,5.100000C496.110000,3.980000,495.420000,3.160000,495.420000,2.620000L495.420000,2.420000C495.420000,1.500000,496.190000,1.040000,497.720000,1.040000L512.130000,1.040000C513.670000,1.040000,514.430000,1.500000,514.430000,2.420000L514.430000,2.650000C514.343936,3.329681,513.939098,3.927653,513.340000,4.260000C512.552500,4.860841,511.819649,5.530112,511.150000,6.260000C510.413251,7.034461,510.017127,8.071586,510.050000,9.140000L509.940000,38.640000L555.230000,38.640000L555.120000,9.140000C555.101254,7.552003,554.329232,6.067344,553.040000,5.140000C551.660000,4,551,3.190000,551,2.650000L551,2.420000C551,1.500000,551.760000,1.040000,553.300000,1.040000L567.700000,1.040000Q570.130000,1.040000,570.130000,2.420000L570.130000,2.650000C570.130000,3.190000,569.740000,3.720000,568.980000,4.260000C568.160295,4.843859,567.405936,5.514401,566.730000,6.260000C565.993251,7.034461,565.597127,8.071586,565.630000,9.140000L565.630000,74.790000C565.597127,75.858414,565.993251,76.895539,566.730000,77.670000C567.403091,78.418465,568.157782,79.089302,568.980000,79.670000C569.740000,80.210000,570.130000,80.750000,570.130000,81.280000L570.130000,81.520000Q570.130000,82.900000,567.700000,82.900000L553.300000,82.900000C551.760000,82.900000,551,82.440000,551,81.520000L551,81.280000C551,80.750000,551.690000,79.920000,553.070000,78.810000C554.359232,77.882656,555.131254,76.397997,555.150000,74.810000L555.260000,43.690000L510.050000,43.690000L510.050000,74.790000C510.017127,75.858414,510.413251,76.895539,511.150000,77.670000C511.816950,78.402587,512.550056,79.072090,513.340000,79.670000C513.936878,80.004768,514.340864,80.601481,514.430000,81.280000L514.430000,81.520000C514.430000,82.440000,513.670000,82.900000,512.130000,82.900000Z" transform="matrix(1 0 0 1 -296.47377319499992 -0.00000000000001)" opacity="0" fill="rgb(60,108,180)" stroke="none" stroke-width="1"/></g></g><script><![CDATA[!function(t,n){"object"==typeof exports&&"undefined"!=typeof module?module.exports=n():"function"==typeof define&&define.amd?define(n):(t="undefined"!=typeof globalThis?globalThis:t||self).__SVGATOR_PLAYER__=n()}(this,(function(){"use strict";function t(n){return(t="function"==typeof Symbol&&"symbol"==typeof Symbol.iterator?function(t){return typeof t}:function(t){return t&&"function"==typeof Symbol&&t.constructor===Symbol&&t!==Symbol.prototype?"symbol":typeof t})(n)}function n(t,n){if(!(t instanceof n))throw new TypeError("Cannot call a class as a function")}function r(t,n){for(var r=0;r<n.length;r++){var e=n[r];e.enumerable=e.enumerable||!1,e.configurable=!0,"value"in e&&(e.writable=!0),Object.defineProperty(t,e.key,e)}}function e(t,n,e){return n&&r(t.prototype,n),e&&r(t,e),t}function i(t){return(i=Object.setPrototypeOf?Object.getPrototypeOf:function(t){return t.__proto__||Object.getPrototypeOf(t)})(t)}function o(t,n){return(o=Object.setPrototypeOf||function(t,n){return t.__proto__=n,t})(t,n)}function u(t,n){return!n||"object"!=typeof n&&"function"!=typeof n?function(t){if(void 0===t)throw new ReferenceError("this hasn't been initialised - super() hasn't been called");return t}(t):n}function a(t){var n=function(){if("undefined"==typeof Reflect||!Reflect.construct)return!1;if(Reflect.construct.sham)return!1;if("function"==typeof Proxy)return!0;try{return Boolean.prototype.valueOf.call(Reflect.construct(Boolean,[],(function(){}))),!0}catch(t){return!1}}();return function(){var r,e=i(t);if(n){var o=i(this).constructor;r=Reflect.construct(e,arguments,o)}else r=e.apply(this,arguments);return u(this,r)}}function l(t,n,r){return(l="undefined"!=typeof Reflect&&Reflect.get?Reflect.get:function(t,n,r){var e=function(t,n){for(;!Object.prototype.hasOwnProperty.call(t,n)&&null!==(t=i(t)););return t}(t,n);if(e){var o=Object.getOwnPropertyDescriptor(e,n);return o.get?o.get.call(r):o.value}})(t,n,r||t)}var f=Math.abs;function s(t){return t}function c(t,n,r){var e=1-r;return 3*r*e*(t*e+n*r)+r*r*r}function h(){var t=arguments.length>0&&void 0!==arguments[0]?arguments[0]:0,n=arguments.length>1&&void 0!==arguments[1]?arguments[1]:0,r=arguments.length>2&&void 0!==arguments[2]?arguments[2]:1,e=arguments.length>3&&void 0!==arguments[3]?arguments[3]:1;return t<0||t>1||r<0||r>1?null:f(t-n)<=1e-5&&f(r-e)<=1e-5?s:function(i){if(i<=0)return t>0?i*n/t:0===n&&r>0?i*e/r:0;if(i>=1)return r<1?1+(i-1)*(e-1)/(r-1):1===r&&t<1?1+(i-1)*(n-1)/(t-1):1;for(var o,u=0,a=1;u<a;){var l=c(t,r,o=(u+a)/2);if(f(i-l)<1e-5)break;l<i?u=o:a=o}return c(n,e,o)}}function v(){return 1}function y(t){return 1===t?1:0}function d(){var t=arguments.length>0&&void 0!==arguments[0]?arguments[0]:1,n=arguments.length>1&&void 0!==arguments[1]?arguments[1]:0;if(1===t){if(0===n)return y;if(1===n)return v}var r=1/t;return function(t){return t>=1?1:(t+=n*r)-t%r}}function g(t){var n=arguments.length>1&&void 0!==arguments[1]?arguments[1]:2;if(Number.isInteger(t))return t;var r=Math.pow(10,n);return Math.round(t*r)/r}var p=Math.PI/180;function m(t,n,r){return t>=.5?r:n}function b(t,n,r){return 0===t||n===r?n:t*(r-n)+n}function w(t,n,r){var e=b(t,n,r);return e<=0?0:e}function x(t,n,r){return 0===t?n:1===t?r:{x:b(t,n.x,r.x),y:b(t,n.y,r.y)}}function k(t,n,r){var e=function(t,n,r){return Math.round(b(t,n,r))}(t,n,r);return e<=0?0:e>=255?255:e}function A(t,n,r){return 0===t?n:1===t?r:{r:k(t,n.r,r.r),g:k(t,n.g,r.g),b:k(t,n.b,r.b),a:b(t,null==n.a?1:n.a,null==r.a?1:r.a)}}function _(t,n,r){if(0===t)return n;if(1===t)return r;var e=n.length;if(e!==r.length)return m(t,n,r);for(var i=[],o=0;o<e;o++)i.push(A(t,n[o],r[o]));return i}function S(t,n){for(var r=[],e=0;e<t;e++)r.push(n);return r}function O(t,n){if(--n<=0)return t;var r=(t=Object.assign([],t)).length;do{for(var e=0;e<r;e++)t.push(t[e])}while(--n>0);return t}var M,j=function(){function t(r){n(this,t),this.list=r,this.length=r.length}return e(t,[{key:"setAttribute",value:function(t,n){for(var r=this.list,e=0;e<this.length;e++)r[e].setAttribute(t,n)}},{key:"removeAttribute",value:function(t){for(var n=this.list,r=0;r<this.length;r++)n[r].removeAttribute(t)}},{key:"style",value:function(t,n){for(var r=this.list,e=0;e<this.length;e++)r[e].style[t]=n}}]),t}(),F=/-./g,P=function(t,n){return n.toUpperCase()};function B(t){return"function"==typeof t?t:m}function I(t){return t?"function"==typeof t?t:Array.isArray(t)?function(t){var n=arguments.length>1&&void 0!==arguments[1]?arguments[1]:s;if(!Array.isArray(t))return n;switch(t.length){case 1:return d(t[0])||n;case 2:return d(t[0],t[1])||n;case 4:return h(t[0],t[1],t[2],t[3])||n}return n}(t,null):function(t,n){var r=arguments.length>2&&void 0!==arguments[2]?arguments[2]:s;switch(t){case"linear":return s;case"steps":return d(n.steps||1,n.jump||0)||r;case"bezier":case"cubic-bezier":return h(n.x1||0,n.y1||0,n.x2||0,n.y2||0)||r}return r}(t.type,t.value,null):null}function R(t,n,r){var e=arguments.length>3&&void 0!==arguments[3]&&arguments[3],i=n.length-1;if(t<=n[0].t)return e?[0,0,n[0].v]:n[0].v;if(t>=n[i].t)return e?[i,1,n[i].v]:n[i].v;var o,u=n[0],a=null;for(o=1;o<=i;o++){if(!(t>n[o].t)){a=n[o];break}u=n[o]}return null==a?e?[i,1,n[i].v]:n[i].v:u.t===a.t?e?[o,1,a.v]:a.v:(t=(t-u.t)/(a.t-u.t),u.e&&(t=u.e(t)),e?[o,t,r(t,u.v,a.v)]:r(t,u.v,a.v))}function q(t,n){var r=arguments.length>2&&void 0!==arguments[2]?arguments[2]:null;return t&&t.length?"function"!=typeof n?null:("function"!=typeof r&&(r=null),function(e){var i=R(e,t,n);return null!=i&&r&&(i=r(i)),i}):null}function E(t,n){return t.t-n.t}function T(n,r,e,i,o){var u,a="@"===e[0],l="#"===e[0],f=M[e],s=m;switch(a?(u=e.substr(1),e=u.replace(F,P)):l&&(e=e.substr(1)),t(f)){case"function":if(s=f(i,o,R,I,e,a,r,n),l)return s;break;case"string":s=q(i,B(f));break;case"object":if((s=q(i,B(f.i),f.f))&&"function"==typeof f.u)return f.u(r,s,e,a,n)}return s?function(t,n,r){var e=arguments.length>3&&void 0!==arguments[3]&&arguments[3];if(e)return t instanceof j?function(e){return t.style(n,r(e))}:function(e){return t.style[n]=r(e)};if(Array.isArray(n)){var i=n.length;return function(e){var o=r(e);if(null==o)for(var u=0;u<i;u++)t[u].removeAttribute(n);else for(var a=0;a<i;a++)t[a].setAttribute(n,o)}}return function(e){var i=r(e);null==i?t.removeAttribute(n):t.setAttribute(n,i)}}(r,e,s,a):null}function N(n,r,e,i){if(!i||"object"!==t(i))return null;var o=null,u=null;return Array.isArray(i)?u=function(t){if(!t||!t.length)return null;for(var n=0;n<t.length;n++)t[n].e&&(t[n].e=I(t[n].e));return t.sort(E)}(i):(u=i.keys,o=i.data||null),u?T(n,r,e,u,o):null}function C(t,n,r){if(!r)return null;var e=[];for(var i in r)if(r.hasOwnProperty(i)){var o=N(t,n,i,r[i]);o&&e.push(o)}return e.length?e:null}function z(t,n){if(!n.duration||n.duration<0)return null;var r=function(t,n){if(!n)return null;var r=[];if(Array.isArray(n))for(var e=n.length,i=0;i<e;i++){var o=n[i];if(2===o.length){var u=null;if("string"==typeof o[0])u=t.getElementById(o[0]);else if(Array.isArray(o[0])){u=[];for(var a=0;a<o[0].length;a++)if("string"==typeof o[0][a]){var l=t.getElementById(o[0][a]);l&&u.push(l)}u=u.length?1===u.length?u[0]:new j(u):null}if(u){var f=C(t,u,o[1]);f&&(r=r.concat(f))}}}else for(var s in n)if(n.hasOwnProperty(s)){var c=t.getElementById(s);if(c){var h=C(t,c,n[s]);h&&(r=r.concat(h))}}return r.length?r:null}(t,n.elements);return r?function(t,n){var r=arguments.length>2&&void 0!==arguments[2]?arguments[2]:1/0,e=arguments.length>3&&void 0!==arguments[3]?arguments[3]:1,i=arguments.length>4&&void 0!==arguments[4]&&arguments[4],o=arguments.length>5&&void 0!==arguments[5]?arguments[5]:1,u=t.length,a=e>0?n:0;i&&r%2==0&&(a=n-a);var l=null;return function(f,s){var c=f%n,h=1+(f-c)/n;s*=e,i&&h%2==0&&(s=-s);var v=!1;if(h>r)c=a,v=!0,-1===o&&(c=e>0?0:n);else if(s<0&&(c=n-c),c===l)return!1;l=c;for(var y=0;y<u;y++)t[y](c);return v}}(r,n.duration,n.iterations||1/0,n.direction||1,!!n.alternate,n.fill||1):null}var L=function(){function t(r,e){var i=arguments.length>2&&void 0!==arguments[2]?arguments[2]:{};n(this,t),this._id=0,this._running=!1,this._rollingBack=!1,this._animations=r,this.duration=e.duration,this.alternate=e.alternate,this.fill=e.fill,this.iterations=e.iterations,this.direction=i.direction||1,this.speed=i.speed||1,this.fps=i.fps||100,this.offset=i.offset||0,this.rollbackStartOffset=0}return e(t,[{key:"_rollback",value:function(){var t=this,n=1/0,r=null;this.rollbackStartOffset=this.offset,this._rollingBack||(this._rollingBack=!0,this._running=!0);this._id=window.requestAnimationFrame((function e(i){if(t._rollingBack){null==r&&(r=i);var o=i-r,u=t.rollbackStartOffset-o,a=Math.round(u*t.speed);if(a>t.duration&&n!=1/0){var l=!!t.alternate&&a/t.duration%2>1,f=a%t.duration;a=(f+=l?t.duration:0)||t.duration}var s=t.fps?1e3/t.fps:0,c=Math.max(0,a);if(c<n-s){t.offset=c,n=c;for(var h=t._animations,v=h.length,y=0;y<v;y++)h[y](c,t.direction)}var d=!1;if(t.iterations>0&&-1===t.fill){var g=t.iterations*t.duration,p=g==a;a=p?0:a,t.offset=p?0:t.offset,d=a>g}a>0&&t.offset>=a&&!d?t._id=window.requestAnimationFrame(e):t.stop()}}))}},{key:"_start",value:function(){var t=this,n=arguments.length>0&&void 0!==arguments[0]?arguments[0]:0,r=-1/0,e=null,i={},o=function o(u){t._running=!0,null==e&&(e=u);var a=Math.round((u-e+n)*t.speed),l=t.fps?1e3/t.fps:0;if(a>r+l&&!t._rollingBack){t.offset=a,r=a;for(var f=t._animations,s=f.length,c=0,h=0;h<s;h++)i[h]?c++:(i[h]=f[h](a,t.direction),i[h]&&c++);if(c===s)return void t._stop()}t._id=window.requestAnimationFrame(o)};this._id=window.requestAnimationFrame(o)}},{key:"_stop",value:function(){this._id&&window.cancelAnimationFrame(this._id),this._running=!1,this._rollingBack=!1}},{key:"play",value:function(){!this._rollingBack&&this._running||(this._rollingBack=!1,this.rollbackStartOffset>this.duration&&(this.offset=this.rollbackStartOffset-(this.rollbackStartOffset-this.offset)%this.duration,this.rollbackStartOffset=0),this._start(this.offset))}},{key:"stop",value:function(){this._stop(),this.offset=0,this.rollbackStartOffset=0;var t=this.direction,n=this._animations;window.requestAnimationFrame((function(){for(var r=0;r<n.length;r++)n[r](0,t)}))}},{key:"reachedToEnd",value:function(){return this.iterations>0&&this.offset>=this.iterations*this.duration}},{key:"restart",value:function(){this._stop(),this.offset=0,this._start()}},{key:"pause",value:function(){this._stop()}},{key:"reverse",value:function(){this.direction=-this.direction}}],[{key:"build",value:function(n,r){return(n=function(t,n){if(M=n,!t||!t.root||!Array.isArray(t.animations))return null;for(var r=document.getElementsByTagName("svg"),e=!1,i=0;i<r.length;i++)if(r[i].id===t.root&&!r[i].svgatorAnimation){(e=r[i]).svgatorAnimation=!0;break}if(!e)return null;var o=t.animations.map((function(t){return z(e,t)})).filter((function(t){return!!t}));return o.length?{element:e,animations:o,animationSettings:t.animationSettings,options:t.options||void 0}:null}(n,r))?{el:n.element,options:n.options||{},player:new t(n.animations,n.animationSettings,n.options)}:null}}]),t}();!function(){for(var t=0,n=["ms","moz","webkit","o"],r=0;r<n.length&&!window.requestAnimationFrame;++r)window.requestAnimationFrame=window[n[r]+"RequestAnimationFrame"],window.cancelAnimationFrame=window[n[r]+"CancelAnimationFrame"]||window[n[r]+"CancelRequestAnimationFrame"];window.requestAnimationFrame||(window.requestAnimationFrame=function(n){var r=Date.now(),e=Math.max(0,16-(r-t)),i=window.setTimeout((function(){n(r+e)}),e);return t=r+e,i},window.cancelAnimationFrame=window.clearTimeout)}();var D=/\.0+$/g;function Q(t){return Number.isInteger(t)?t+"":t.toFixed(6).replace(D,"")}function U(t){var n=arguments.length>1&&void 0!==arguments[1]?arguments[1]:" ";return t&&t.length?t.map(Q).join(n):""}function V(t){return t?null==t.a||t.a>=1?"rgb("+t.r+","+t.g+","+t.b+")":"rgba("+t.r+","+t.g+","+t.b+","+t.a+")":"transparent"}var $={f:null,i:function(t,n,r){return 0===t?n:1===t?r:{x:w(t,n.x,r.x),y:w(t,n.y,r.y)}},u:function(t,n){return function(r){var e=n(r);t.setAttribute("rx",Q(e.x)),t.setAttribute("ry",Q(e.y))}}},G={f:null,i:function(t,n,r){return 0===t?n:1===t?r:{width:w(t,n.width,r.width),height:w(t,n.height,r.height)}},u:function(t,n){return function(r){var e=n(r);t.setAttribute("width",Q(e.width)),t.setAttribute("height",Q(e.height))}}},H=Math.sin,Y=Math.cos,Z=Math.acos,J=Math.asin,K=Math.tan,W=Math.atan2,X=Math.PI/180,tt=180/Math.PI,nt=Math.sqrt,rt=function(){function t(){var r=arguments.length>0&&void 0!==arguments[0]?arguments[0]:1,e=arguments.length>1&&void 0!==arguments[1]?arguments[1]:0,i=arguments.length>2&&void 0!==arguments[2]?arguments[2]:0,o=arguments.length>3&&void 0!==arguments[3]?arguments[3]:1,u=arguments.length>4&&void 0!==arguments[4]?arguments[4]:0,a=arguments.length>5&&void 0!==arguments[5]?arguments[5]:0;n(this,t),this.m=[r,e,i,o,u,a],this.i=null,this.w=null,this.s=null}return e(t,[{key:"determinant",get:function(){var t=this.m;return t[0]*t[3]-t[1]*t[2]}},{key:"isIdentity",get:function(){if(null===this.i){var t=this.m;this.i=1===t[0]&&0===t[1]&&0===t[2]&&1===t[3]&&0===t[4]&&0===t[5]}return this.i}},{key:"point",value:function(t,n){var r=this.m;return{x:r[0]*t+r[2]*n+r[4],y:r[1]*t+r[3]*n+r[5]}}},{key:"translateSelf",value:function(){var t=arguments.length>0&&void 0!==arguments[0]?arguments[0]:0,n=arguments.length>1&&void 0!==arguments[1]?arguments[1]:0;if(!t&&!n)return this;var r=this.m;return r[4]+=r[0]*t+r[2]*n,r[5]+=r[1]*t+r[3]*n,this.w=this.s=this.i=null,this}},{key:"rotateSelf",value:function(){var t=arguments.length>0&&void 0!==arguments[0]?arguments[0]:0;if(t%=360){var n=H(t*=X),r=Y(t),e=this.m,i=e[0],o=e[1];e[0]=i*r+e[2]*n,e[1]=o*r+e[3]*n,e[2]=e[2]*r-i*n,e[3]=e[3]*r-o*n,this.w=this.s=this.i=null}return this}},{key:"scaleSelf",value:function(){var t=arguments.length>0&&void 0!==arguments[0]?arguments[0]:1,n=arguments.length>1&&void 0!==arguments[1]?arguments[1]:1;if(1!==t||1!==n){var r=this.m;r[0]*=t,r[1]*=t,r[2]*=n,r[3]*=n,this.w=this.s=this.i=null}return this}},{key:"skewSelf",value:function(t,n){if(n%=360,(t%=360)||n){var r=this.m,e=r[0],i=r[1],o=r[2],u=r[3];t&&(t=K(t*X),r[2]+=e*t,r[3]+=i*t),n&&(n=K(n*X),r[0]+=o*n,r[1]+=u*n),this.w=this.s=this.i=null}return this}},{key:"resetSelf",value:function(){var t=arguments.length>0&&void 0!==arguments[0]?arguments[0]:1,n=arguments.length>1&&void 0!==arguments[1]?arguments[1]:0,r=arguments.length>2&&void 0!==arguments[2]?arguments[2]:0,e=arguments.length>3&&void 0!==arguments[3]?arguments[3]:1,i=arguments.length>4&&void 0!==arguments[4]?arguments[4]:0,o=arguments.length>5&&void 0!==arguments[5]?arguments[5]:0,u=this.m;return u[0]=t,u[1]=n,u[2]=r,u[3]=e,u[4]=i,u[5]=o,this.w=this.s=this.i=null,this}},{key:"recomposeSelf",value:function(){var t=arguments.length>0&&void 0!==arguments[0]?arguments[0]:null,n=arguments.length>1&&void 0!==arguments[1]?arguments[1]:null,r=arguments.length>2&&void 0!==arguments[2]?arguments[2]:null,e=arguments.length>3&&void 0!==arguments[3]?arguments[3]:null,i=arguments.length>4&&void 0!==arguments[4]?arguments[4]:null;return this.isIdentity||this.resetSelf(),t&&(t.x||t.y)&&this.translateSelf(t.x,t.y),n&&this.rotateSelf(n),r&&(r.x&&this.skewSelf(r.x,0),r.y&&this.skewSelf(0,r.y)),!e||1===e.x&&1===e.y||this.scaleSelf(e.x,e.y),i&&(i.x||i.y)&&this.translateSelf(i.x,i.y),this}},{key:"decompose",value:function(){var t=arguments.length>0&&void 0!==arguments[0]?arguments[0]:0,n=arguments.length>1&&void 0!==arguments[1]?arguments[1]:0,r=this.m,e=r[0]*r[0]+r[1]*r[1],i=[[r[0],r[1]],[r[2],r[3]]],o=nt(e);if(0===o)return{origin:{x:r[4],y:r[5]},translate:{x:t,y:n},scale:{x:0,y:0},skew:{x:0,y:0},rotate:0};i[0][0]/=o,i[0][1]/=o;var u=r[0]*r[3]-r[1]*r[2]<0;u&&(o=-o);var a=i[0][0]*i[1][0]+i[0][1]*i[1][1];i[1][0]-=i[0][0]*a,i[1][1]-=i[0][1]*a;var l=nt(i[1][0]*i[1][0]+i[1][1]*i[1][1]);if(0===l)return{origin:{x:r[4],y:r[5]},translate:{x:t,y:n},scale:{x:o,y:0},skew:{x:0,y:0},rotate:0};i[1][0]/=l,i[1][1]/=l,a/=l;var f=0;return i[1][1]<0?(f=Z(i[1][1])*tt,i[0][1]<0&&(f=360-f)):f=J(i[0][1])*tt,u&&(f=-f),a=W(a,nt(i[0][0]*i[0][0]+i[0][1]*i[0][1]))*tt,u&&(a=-a),{origin:{x:r[4],y:r[5]},translate:{x:t,y:n},scale:{x:o,y:l},skew:{x:a,y:0},rotate:f}}},{key:"toString",value:function(){return null===this.s&&(this.s="matrix("+this.m.map(it).join(" ")+")"),this.s}}]),t}(),et=/\.0+$/;function it(t){return Number.isInteger(t)?t:t.toFixed(14).replace(et,"")}function ot(t,n,r){return t+(n-t)*r}function ut(t,n,r){var e=arguments.length>3&&void 0!==arguments[3]&&arguments[3],i={x:ot(t.x,n.x,r),y:ot(t.y,n.y,r)};return e&&(i.a=at(t,n)),i}function at(t,n){return Math.atan2(n.y-t.y,n.x-t.x)}Object.freeze({M:2,L:2,Z:0,H:1,V:1,C:6,Q:4,T:2,S:4,A:7});var lt={},ft=null;function st(n){var r=function(){if(ft)return ft;if("object"!==("undefined"==typeof document?"undefined":t(document)))return{};var n=document.createElementNS("http://www.w3.org/2000/svg","svg");return n.style.position="absolute",n.style.opacity="0.01",n.style.zIndex="-9999",n.style.left="-9999px",n.style.width="1px",n.style.height="1px",ft={svg:n}}().svg;if(!r)return function(t){return null};var e=document.createElementNS(r.namespaceURI,"path");e.setAttributeNS(null,"d",n),e.setAttributeNS(null,"fill","none"),e.setAttributeNS(null,"stroke","none"),r.appendChild(e);var i=e.getTotalLength();return function(t){var n=e.getPointAtLength(i*t);return{x:n.x,y:n.y}}}function ct(t){return lt[t]?lt[t]:lt[t]=st(t)}function ht(t,n,r,e){if(!t||!e)return!1;var i=["M",t.x,t.y];if(n&&r&&(i.push("C"),i.push(n.x),i.push(n.y),i.push(r.x),i.push(r.y)),n?!r:r){var o=n||r;i.push("Q"),i.push(o.x),i.push(o.y)}return n||r||i.push("L"),i.push(e.x),i.push(e.y),i.join(" ")}function vt(t,n,r,e){var i=arguments.length>4&&void 0!==arguments[4]?arguments[4]:1,o=ht(t,n,r,e),u=ct(o);try{return u(i)}catch(t){return null}}function yt(t,n,r,e){var i=1-e;return i*i*t+2*i*e*n+e*e*r}function dt(t,n,r,e){return 2*(1-e)*(n-t)+2*e*(r-n)}function gt(t,n,r,e){var i=arguments.length>4&&void 0!==arguments[4]&&arguments[4],o=vt(t,n,null,r,e);return o||(o={x:yt(t.x,n.x,r.x,e),y:yt(t.y,n.y,r.y,e)}),i&&(o.a=pt(t,n,r,e)),o}function pt(t,n,r,e){return Math.atan2(dt(t.y,n.y,r.y,e),dt(t.x,n.x,r.x,e))}function mt(t,n,r,e,i){var o=i*i;return i*o*(e-t+3*(n-r))+3*o*(t+r-2*n)+3*i*(n-t)+t}function bt(t,n,r,e,i){var o=1-i;return 3*(o*o*(n-t)+2*o*i*(r-n)+i*i*(e-r))}function wt(t,n,r,e,i){var o=arguments.length>5&&void 0!==arguments[5]&&arguments[5],u=vt(t,n,r,e,i);return u||(u={x:mt(t.x,n.x,r.x,e.x,i),y:mt(t.y,n.y,r.y,e.y,i)}),o&&(u.a=xt(t,n,r,e,i)),u}function xt(t,n,r,e,i){return Math.atan2(bt(t.y,n.y,r.y,e.y,i),bt(t.x,n.x,r.x,e.x,i))}function kt(t,n,r){var e=arguments.length>3&&void 0!==arguments[3]&&arguments[3];if(_t(n)){if(St(r))return gt(n,r.start,r,t,e)}else if(_t(r)){if(n.end)return gt(n,n.end,r,t,e)}else{if(n.end)return r.start?wt(n,n.end,r.start,r,t,e):gt(n,n.end,r,t,e);if(r.start)return gt(n,r.start,r,t,e)}return ut(n,r,t,e)}function At(t,n,r){var e=kt(t,n,r,!0);return e.a=function(t){var n=arguments.length>1&&void 0!==arguments[1]&&arguments[1];return n?t+Math.PI:t}(e.a)/p,e}function _t(t){return!t.type||"corner"===t.type}function St(t){return null!=t.start&&!_t(t)}var Ot=new rt;var Mt={f:Q,i:b},jt={f:Q,i:function(t,n,r){var e=b(t,n,r);return e<=0?0:e>=1?1:e}};function Ft(t,n,r,e,i,o,u,a){return n=function(t,n,r){for(var e,i,o,u=t.length-1,a={},l=0;l<=u;l++)(e=t[l]).e&&(e.e=n(e.e)),e.v&&"g"===(i=e.v).t&&i.r&&(o=r.getElementById(i.r))&&(a[i.r]=o.querySelectorAll("stop"));return a}(t,e,a),function(e){var i,o=r(e,t,Pt);return o?"c"===o.t?V(o.v):"g"===o.t?(n[o.r]&&function(t,n){for(var r=0,e=t.length;r<e;r++)t[r].setAttribute("stop-color",V(n[r]))}(n[o.r],o.v),(i=o.r)?"url(#"+i+")":"none"):"none":"none"}}function Pt(t,n,r){if(0===t)return n;if(1===t)return r;if(n&&r){var e=n.t;if(e===r.t)switch(n.t){case"c":return{t:e,v:A(t,n.v,r.v)};case"g":if(n.r===r.r)return{t:e,v:_(t,n.v,r.v),r:n.r}}}return m(t,n,r)}var Bt={fill:Ft,"fill-opacity":jt,stroke:Ft,"stroke-opacity":jt,"stroke-width":Mt,"stroke-dashoffset":{f:Q,i:b},"stroke-dasharray":{f:function(t){var n=arguments.length>1&&void 0!==arguments[1]?arguments[1]:" ";return t&&t.length>0&&(t=t.map((function(t){return Math.floor(1e4*t)/1e4}))),U(t,n)},i:function(t,n,r){var e,i,o,u=n.length,a=r.length;if(u!==a)if(0===u)n=S(u=a,0);else if(0===a)a=u,r=S(u,0);else{var l=(o=(e=u)*(i=a)/function(t,n){for(var r;n;)r=n,n=t%n,t=r;return t||1}(e,i))<0?-o:o;n=O(n,Math.floor(l/u)),r=O(r,Math.floor(l/a)),u=a=l}for(var f=[],s=0;s<u;s++)f.push(g(w(t,n[s],r[s]),6));return f}},opacity:jt,transform:function(n,r,e,i){if(!(n=function(n,r){if(!n||"object"!==t(n))return null;var e=!1;for(var i in n)n.hasOwnProperty(i)&&(n[i]&&n[i].length?(n[i].forEach((function(t){t.e&&(t.e=r(t.e))})),e=!0):delete n[i]);return e?n:null}(n,i)))return null;var o=function(t,i,o){var u=arguments.length>3&&void 0!==arguments[3]?arguments[3]:null;return n[t]?e(i,n[t],o):r&&r[t]?r[t]:u};return r&&r.a&&n.o?function(t){var r=e(t,n.o,At);return Ot.recomposeSelf(r,o("r",t,b,0)+r.a,o("k",t,x),o("s",t,x),o("t",t,x)).toString()}:function(t){return Ot.recomposeSelf(o("o",t,kt,null),o("r",t,b,0),o("k",t,x),o("s",t,x),o("t",t,x)).toString()}},r:Mt,"#size":G,"#radius":$,_:function(t,n){if(Array.isArray(t))for(var r=0;r<t.length;r++)this[t[r]]=n;else this[t]=n}};return function(t){!function(t,n){if("function"!=typeof n&&null!==n)throw new TypeError("Super expression must either be null or a function");t.prototype=Object.create(n&&n.prototype,{constructor:{value:t,writable:!0,configurable:!0}}),n&&o(t,n)}(u,t);var r=a(u);function u(){return n(this,u),r.apply(this,arguments)}return e(u,null,[{key:"build",value:function(t){var n=l(i(u),"build",this).call(this,t,Bt);n.el,n.options;var r=n.player;return function(t){t.play()}(r),r}}]),u}(L)}));
__SVGATOR_PLAYER__.build({"root":"ec21wmuhkmx81","animations":[{"duration":3000,"direction":1,"iterations":1,"fill":1,"alternate":false,"elements":{"ec21wmuhkmx84":{"transform":{"data":{"t":{"x":-231.44827270507812,"y":-42.005001068115234}},"keys":{"o":[{"t":0,"v":{"x":285.05140380507817,"y":42.005001068115234,"type":"corner"}},{"t":500,"v":{"x":231.4482727050783,"y":42.005001068115234,"type":"corner"}}],"r":[{"t":0,"v":0},{"t":1000,"v":129600}]}}},"ec21wmuhkmx85":{"transform":{"data":{"t":{"x":-33.5,"y":-41.94999694824219}},"keys":{"o":[{"t":500,"v":{"x":236.30122680000002,"y":41.94999694824219,"type":"corner"}},{"t":1000,"v":{"x":33.500000000000284,"y":41.94999694824219,"type":"corner"}}]}},"opacity":[{"t":500,"v":0},{"t":1000,"v":1}]},"ec21wmuhkmx86":{"transform":{"data":{"t":{"x":-127.66117858886719,"y":-42.010008811950684}},"keys":{"o":[{"t":500,"v":{"x":231.4468927038673,"y":42.010008811950684,"type":"corner"}},{"t":1000,"v":{"x":131.0771746988675,"y":43.03000881195067,"type":"corner"}}]}},"opacity":[{"t":500,"v":0},{"t":1000,"v":1}]},"ec21wmuhkmx87":{"transform":{"data":{"t":{"x":-329.53001403808594,"y":-41.948955059051514}},"keys":{"o":[{"t":500,"v":{"x":231.44688293808588,"y":41.948955059051514,"type":"corner"}},{"t":1000,"v":{"x":336.50052193808574,"y":41.948955059051514,"type":"corner"}}]}},"opacity":[{"t":500,"v":0},{"t":1000,"v":1}]},"ec21wmuhkmx88":{"transform":{"data":{"t":{"x":-426.8553924560547,"y":-41.99636703496799}},"keys":{"o":[{"t":500,"v":{"x":236.30325622605457,"y":40.856367034967974,"type":"corner"}},{"t":1000,"v":{"x":432.3587722260543,"y":42.006367029968004,"type":"corner"}}]}},"opacity":[{"t":500,"v":0},{"t":1000,"v":1}]},"ec21wmuhkmx89":{"transform":{"data":{"t":{"x":-532.7750091552734,"y":-41.96999657154083}},"keys":{"o":[{"t":500,"v":{"x":236.30123596027354,"y":41.96999657154082,"type":"corner"}},{"t":1000,"v":{"x":532.7450091602733,"y":41.96999657154082,"type":"corner"}}]}},"opacity":[{"t":500,"v":0},{"t":1000,"v":1}]}}}],"options":{"start":"load","hover":"freeze","click":"freeze","scroll":25,"font":"embed","exportedIds":"unique","title":"Asset 1"},"animationSettings":{"duration":3000,"direction":1,"iterations":1,"fill":1,"alternate":false}})]]></script></svg>