<svg xmlns="http://www.w3.org/2000/svg" viewBox="0 0 1382.65 54.49"><defs><style>.cls-1{fill:#56a765;}.cls-2{fill:#3c6cb4;}.cls-3{fill:#fdcd5f;}.cls-4{fill:#ff988f;}.cls-14,.cls-19,.cls-5{font-size:34.51px;font-family:RecoletaAlt-Medium, Recoleta Alt;font-weight:550;}.cls-5{fill:#3661a3;}.cls-15,.cls-19,.cls-5{letter-spacing:-0.01em;}.cls-6{letter-spacing:0em;}.cls-7{letter-spacing:-0.05em;}.cls-8{letter-spacing:-0.02em;}.cls-9{letter-spacing:0em;}.cls-10{letter-spacing:0em;}.cls-11{letter-spacing:0em;}.cls-12{fill:#c55d50;}.cls-13{fill:#7d6fd1;}.cls-14,.cls-19{fill:#faead6;}.cls-16{letter-spacing:-0.01em;}.cls-17{letter-spacing:0em;}.cls-18{letter-spacing:-0.01em;}</style></defs><g id="Layer_2" data-name="Layer 2"><g id="Layer_1-2" data-name="Layer 1"><rect class="cls-1" width="1382.65" height="54.49"/><rect class="cls-2" width="985.84" height="54.49"/><rect class="cls-3" width="446.44" height="54.49"/><path class="cls-4" d="M69.18,25.33A152.31,152.31,0,0,0,72,54.49H368.55A152.27,152.27,0,0,0,369.25,0H71.31A150.93,150.93,0,0,0,69.18,25.33Z"/><text class="cls-5" transform="translate(81.86 37.44)">R<tspan class="cls-6" x="22.61" y="0">e</tspan><tspan class="cls-7" x="39.79" y="0">-</tspan><tspan class="cls-8" x="54.05" y="0">A</tspan><tspan class="cls-9" x="76.69" y="0">u</tspan><tspan class="cls-10" x="96.46" y="0">thori</tspan><tspan class="cls-11" x="175  .22" y="0">z</tspan><tspan class="cls-10" x="191.96" y="0">ation</tspan></text><path class="cls-12" d="M508.43,24.19a211.68,211.68,0,0,0,2.18,30.3H927.34A211.45,211.45,0,0,0,928.13,0H509.82A212.36,212.36,0,0,0,508.43,24.19Z"/><path class="cls-13" d="M1056.42,27.78a129.08,129.08,0,0,0,2.79,26.71h251.56A129.26,129.26,0,0,0,1310.54,0h-251.1A129.08,129.08,0,0,0,1056.42,27.78Z"/><text class="cls-14" transform="translate(1118.96 39.11)"><tspan class="cls-15">R</tspan><tspan class="cls-6" x="22.61" y="0">e</tspan><tspan class="cls-16" x="39.79" y="0">-</tspan><tspan class="cls-17" x="55.29" y="0">H</tspan><tspan x="81.93" y="0">i</tspan><tspan class="cls-18" x="91.08" y="0">r</tspan><tspan class="cls-6" x="104.78" y="0">e</tspan></text><text class="cls-19" transform="translate(605.32 37.44)">R<tspan class="cls-6" x="22.61" y="0">e-Cognition</tspan></text></g></g></svg>