<?xml version="1.0" standalone="no"?>
<!DOCTYPE svg PUBLIC "-//W3C//DTD SVG 20010904//EN"
 "http://www.w3.org/TR/2001/REC-SVG-20010904/DTD/svg10.dtd">
<svg version="1.0" xmlns="http://www.w3.org/2000/svg"
 width="446.000000pt" height="446.000000pt" viewBox="0 0 446.000000 446.000000"
 preserveAspectRatio="xMidYMid meet">
<metadata>
Created by potrace 1.11, written by Peter Selinger 2001-2013
</metadata>
<g transform="translate(0.000000,446.000000) scale(0.100000,-0.100000)"
fill="#000000" stroke="none">
<path d="M2133 4442 c-130 -46 -231 -180 -288 -379 -85 -298 -39 -738 126
-1211 52 -147 174 -435 231 -546 8 -14 7 -17 -3 -11 -9 6 -11 3 -6 -8 11 -30
1 -19 -43 46 -23 34 -57 82 -74 107 -58 85 -254 327 -333 411 -365 392 -696
604 -1016 650 -317 46 -530 -152 -448 -417 116 -380 688 -689 1476 -798 229
-32 236 -32 324 -34 53 -2 62 -5 57 -18 -3 -8 -2 -12 4 -9 6 3 10 2 10 -3 0
-5 -48 -12 -107 -16 -207 -13 -484 -58 -713 -116 -561 -141 -965 -416 -1053
-717 -21 -71 -16 -176 11 -234 29 -62 105 -131 178 -160 51 -20 76 -23 179
-22 144 1 243 26 400 102 360 173 759 557 1094 1054 54 79 65 90 55 59 -5 -14
-3 -14 11 3 22 25 21 23 -44 -110 -163 -338 -299 -753 -336 -1030 -31 -229
-27 -442 9 -610 22 -101 91 -237 156 -308 72 -79 142 -112 240 -112 96 0 168
33 237 109 228 249 251 755 64 1363 -38 121 -110 319 -145 396 -8 18 -38 84
-66 147 -29 63 -56 119 -61 124 -13 14 -11 28 3 20 8 -5 9 -2 4 12 -10 27 -2
17 74 -93 94 -133 92 -131 201 -267 351 -441 720 -729 1064 -832 75 -22 110
-27 210 -27 144 -1 205 18 285 90 73 66 95 117 94 223 -1 153 -79 291 -249
439 -179 156 -539 321 -865 395 -166 39 -411 79 -550 92 -41 4 -84 8 -95 10
-11 1 -42 3 -68 3 -29 1 -46 5 -42 11 6 9 -8 14 -27 11 -5 0 -8 3 -8 8 0 4 26
9 58 10 221 8 572 64 822 131 233 63 489 171 643 272 355 232 488 565 301 752
-138 138 -407 137 -702 -4 -334 -159 -700 -502 -1029 -965 -122 -172 -127
-177 -118 -150 7 20 6 20 -9 1 -9 -11 -16 -15 -16 -10 0 6 4 14 9 20 17 16
136 284 194 434 48 126 130 379 142 438 2 11 12 62 23 113 11 52 23 117 27
144 3 28 10 84 15 125 12 105 5 341 -14 432 -46 218 -146 382 -270 443 -71 35
-164 42 -233 17z"/>
<path d="M2150 2360 c6 -11 13 -20 16 -20 2 0 0 9 -6 20 -6 11 -13 20 -16 20
-2 0 0 -9 6 -20z"/>
<path d="M2291 2344 c-12 -20 -20 -38 -18 -40 2 -2 14 14 26 36 28 50 21 53
-8 4z"/>
<path d="M2170 2321 c0 -5 5 -13 10 -16 6 -3 10 -2 10 4 0 5 -4 13 -10 16 -5
3 -10 2 -10 -4z"/>
<path d="M2161 2120 c-12 -22 -20 -40 -18 -40 7 0 48 72 44 76 -2 2 -14 -14
-26 -36z"/>
<path d="M2270 2158 c0 -9 41 -78 46 -78 3 0 -2 12 -10 28 -21 37 -36 58 -36
50z"/>
</g>
</svg>
